# xmcd
#
# Track frame offsets:
#	150
#	4635
#	24135
#	44460
#	66098
#	87473
#	110835
#	116265
#	147125
#	168785
#	187505
#	211410
#
# Disc length: 3178 seconds
#
# Revision: 1
# Processed by: cddbd v1.5.2PL0 Copyright (c) Steve Scherf et al.
# Submitted via: audiograbber 1.83.01
#
DISCID=900c680c
DTITLE=Henry Heggen - Bluephoria
DYEAR=1900
DGENRE=
TTITLE0=Meet the Band
TTITLE1=My Country Man
TTITLE2=Please baby
TTITLE3=cry to me
TTITLE4=cornbread, peas and...
TTITLE5=Going to the river
TTITLE6=intro
TTITLE7=he loves so good
TTITLE8=say no to the devil
TTITLE9=don't you tell nobody
TTITLE10=Henry's midnight train
TTITLE11=mojo boogie
EXTD=
EXTT0=
EXTT1=
EXTT2=
EXTT3=
EXTT4=
EXTT5=
EXTT6=
EXTT7=
EXTT8=
EXTT9=
EXTT10=
EXTT11=
PLAYORDER=
